<?xml version="1.0" standalone="no"?>
<!DOCTYPE svg PUBLIC "-//W3C//DTD SVG 20010904//EN"
 "http://www.w3.org/TR/2001/REC-SVG-20010904/DTD/svg10.dtd">
<svg version="1.0" xmlns="http://www.w3.org/2000/svg"
 width="260.000000pt" height="260.000000pt" viewBox="0 0 260.000000 260.000000"
 preserveAspectRatio="xMidYMid meet">
<metadata>
Created by potrace 1.11, written by Peter Selinger 2001-2013
</metadata>
<g transform="translate(0.000000,260.000000) scale(0.100000,-0.100000)"
fill="#000000" stroke="none">
<path d="M0 1300 l0 -1300 1300 0 1300 0 0 1300 0 1300 -1300 0 -1300 0 0
-1300z m2550 0 l0 -1250 -1250 0 -1250 0 0 1250 0 1250 1250 0 1250 0 0 -1250z"/>
<path d="M70 1300 l0 -1230 1230 0 1230 0 0 1230 0 1230 -1230 0 -1230 0 0
-1230z m523 863 c36 -57 682 -1173 702 -1212 l17 -34 40 74 c97 179 663 1176
676 1192 11 13 30 17 79 17 l63 0 0 -870 0 -870 -65 0 -65 0 -2 751 -3 751
-325 -578 c-179 -317 -333 -588 -343 -601 -14 -17 -28 -23 -58 -23 -34 0 -42
5 -63 38 -18 28 -622 1074 -674 1167 -9 15 -11 -176 -12 -742 l0 -763 -60 0
-60 0 0 870 0 870 65 0 c64 0 65 0 88 -37z"/>
</g>
</svg>
